# xmcd
#
# Track frame offsets: 
#        150
#        4527
#        24802
#        44702
#        55426
#        69782
#        86385
#        103513
#        126131
#        139816
#        153663
#        166513
#        181866
#        203851
#        217958
#        239343
#        254663
#        264768
#
# Disc length: 3666 seconds
#
# Revision: 1
# Processed by: cddbd v1.5.2PL0 Copyright (c) Steve Scherf et al.
# Submitted via: ExactAudioCopy v0.95b4
#
DISCID=e80e5012
DTITLE=John Denver - Live
DYEAR=1997
DGENRE=Country
TTITLE0=Music Is You
TTITLE1=This Old Guitar
TTITLE2=Rocky Mountain High
TTITLE3=Toledo
TTITLE4=Rocky Mountain Suite
TTITLE5=Farewell Andromeda
TTITLE6=Matthew
TTITLE7=Sweet Surrender
TTITLE8=Grandma's Feather Bed
TTITLE9=Annie's Song
TTITLE10=Forest Lawn
TTITLE11=Thank God I'm A Country Boy
TTITLE12=My Sweet Lady
TTITLE13=Take Me Home Country Roads
TTITLE14=Poems, Prayers And Promises
TTITLE15=Rhymes And Reasons
TTITLE16=Blue Grass
TTITLE17=The Eagle And The Hawk
EXTD=
EXTT0=
EXTT1=
EXTT2=
EXTT3=
EXTT4=
EXTT5=
EXTT6=
EXTT7=
EXTT8=
EXTT9=
EXTT10=
EXTT11=
EXTT12=
EXTT13=
EXTT14=
EXTT15=
EXTT16=
EXTT17=
PLAYORDER=
